<svg width="681" height="114" viewBox="0 0 681 114" fill="none" xmlns="http://www.w3.org/2000/svg">
<mask id="mask0_45_11" style="mask-type:luminance" maskUnits="userSpaceOnUse" x="0" y="0" width="681" height="114">
<path d="M680.073 0H0V113.738H680.073V0Z" fill="white"/>
</mask>
<g mask="url(#mask0_45_11)">
<path d="M32.7983 86.2698L18.978 59.1567C30.0878 61.6864 35.3838 56.0416 36.6428 52.9029L46.872 31.8511C52.9808 23.3715 60.0788 28.3179 62.8641 31.8511L72.3731 52.9029C79.4039 65.2689 87.1166 58.0553 90.0941 52.9029L99.6031 33.1761C106.98 23.872 113.818 29.2993 116.315 33.1761L128.965 60.4983C118.413 57.9222 114.865 61.645 113.905 63.958L102.772 86.2698C96.0875 98.3599 88.1731 91.3072 85.0515 86.2698L74.5352 63.958C69.8761 58.304 62.7191 60.8801 61.1472 63.958L49.3824 86.2698C42.0853 98.2448 35.2858 91.2594 32.7983 86.2698Z" fill="url(#paint0_linear_45_11)"/>
<path d="M387.919 45.9052C386.248 42.0612 383.687 39.0524 380.23 36.8798C376.834 34.6513 372.822 33.537 368.198 33.537C363.852 33.537 359.951 34.5397 356.498 36.5455C353.044 38.5511 350.314 41.4203 348.308 45.1532C346.302 48.8302 345.298 53.1203 345.298 58.023C345.298 62.9258 346.302 67.2434 348.308 70.9764C350.314 74.7091 353.044 77.5783 356.498 79.5839C359.951 81.5897 363.852 82.5926 368.198 82.5926C372.264 82.5926 375.914 81.729 379.144 80.0019C382.432 78.219 385.05 75.7118 387.002 72.4806C389.005 69.1935 390.148 65.3772 390.426 61.0315H365.857V56.2679H396.612V60.53C396.332 65.6556 394.941 70.3077 392.431 74.4862C389.925 78.609 386.555 81.8681 382.321 84.264C378.143 86.6596 373.434 87.8574 368.198 87.8574C362.793 87.8574 357.891 86.6038 353.49 84.0969C349.087 81.5339 345.606 77.9961 343.042 73.4833C340.535 68.9148 339.283 63.7614 339.283 58.023C339.283 52.2845 340.535 47.1588 343.042 42.6461C345.606 38.0775 349.087 34.5397 353.49 32.0328C357.891 29.4698 362.793 28.1885 368.198 28.1885C374.436 28.1885 379.898 29.7485 384.577 32.8683C389.258 35.9884 392.655 40.334 394.772 45.9052H387.919ZM410.67 82.5088H431.646V87.2725H404.819V28.8569H410.67V82.5088ZM463.729 87.8574C458.324 87.8574 453.422 86.6038 449.019 84.0969C444.618 81.5339 441.137 77.9961 438.573 73.4833C436.066 68.9148 434.812 63.7614 434.812 58.023C434.812 52.2845 436.066 47.1588 438.573 42.6461C441.137 38.0775 444.618 34.5397 449.019 32.0328C453.422 29.4698 458.324 28.1885 463.729 28.1885C469.189 28.1885 474.118 29.4698 478.521 32.0328C482.922 34.5397 486.376 38.0775 488.882 42.6461C491.389 47.1588 492.644 52.2845 492.644 58.023C492.644 63.7614 491.389 68.9148 488.882 73.4833C486.376 77.9961 482.922 81.5339 478.521 84.0969C474.118 86.6038 469.189 87.8574 463.729 87.8574ZM463.729 82.7597C468.073 82.7597 471.973 81.7568 475.427 79.7512C478.883 77.7454 481.613 74.8762 483.619 71.1435C485.625 67.355 486.626 62.9813 486.626 58.023C486.626 53.0645 485.625 48.7189 483.619 44.9861C481.613 41.2532 478.883 38.384 475.427 36.3784C471.973 34.3726 468.073 33.3699 463.729 33.3699C459.383 33.3699 455.483 34.3726 452.029 36.3784C448.575 38.384 445.845 41.2532 443.839 44.9861C441.833 48.7189 440.829 53.0645 440.829 58.023C440.829 62.9813 441.833 67.355 443.839 71.1435C445.845 74.8762 448.575 77.7454 452.029 79.7512C455.483 81.7568 459.383 82.7597 463.729 82.7597ZM528.168 57.1037C531.454 57.7166 534.241 59.3879 536.524 62.1178C538.81 64.8478 539.951 68.0234 539.951 71.6448C539.951 74.5976 539.199 77.2718 537.694 79.6677C536.246 82.0075 534.102 83.874 531.26 85.2666C528.419 86.6038 525.02 87.2725 521.065 87.2725H500.841V28.8569H520.48C526.386 28.8569 530.869 30.2221 533.933 32.9519C537.055 35.682 538.614 39.2198 538.614 43.5654C538.614 47.1866 537.64 50.1396 535.688 52.4238C533.74 54.6523 531.233 56.2123 528.168 57.1037ZM506.689 54.6801H520.311C524.268 54.6801 527.303 53.761 529.421 51.9222C531.595 50.028 532.681 47.4375 532.681 44.1503C532.681 40.9189 531.595 38.384 529.421 36.5455C527.303 34.7068 524.184 33.7877 520.061 33.7877H506.689V54.6801ZM520.646 82.3417C524.881 82.3417 528.168 81.339 530.507 79.3332C532.904 77.3276 534.102 74.5698 534.102 71.0599C534.102 67.5499 532.847 64.7643 530.34 62.7029C527.888 60.5857 524.573 59.5273 520.396 59.5273H506.689V82.3417H520.646ZM582.043 73.3998H555.469L550.371 87.2725H544.185L565.496 29.6092H572.098L593.325 87.2725H587.141L582.043 73.3998ZM580.288 68.5528L568.756 36.9633L557.222 68.5528H580.288ZM606.056 82.5088H627.032V87.2725H600.207V28.8569H606.056V82.5088Z" fill="white"/>
<path d="M156.407 86.4561H146.546V28.0408H161.923L179.556 64.7279L197.189 28.0408H212.482V86.4561H202.621V40.8268L182.23 81.3582H176.715L156.407 40.8268V86.4561ZM247.615 86.4561H222.043V28.0408H244.774C248.731 28.0408 252.127 28.5143 254.969 29.4615C257.867 30.4086 260.012 31.6899 261.405 33.3055C264.078 36.314 265.415 39.7125 265.415 43.501C265.415 48.0696 263.967 51.4681 261.071 53.6966C260.012 54.4766 259.288 54.9782 258.896 55.2008C258.507 55.3679 257.81 55.6744 256.809 56.1202C260.429 56.9002 263.3 58.5438 265.415 61.0507C267.589 63.5021 268.675 66.5664 268.675 70.2435C268.675 74.3105 267.282 77.9041 264.497 81.024C261.21 84.6454 255.581 86.4561 247.615 86.4561ZM231.904 52.2759H244.44C251.572 52.2759 255.137 49.8525 255.137 45.0053C255.137 42.2197 254.272 40.2141 252.547 38.9883C250.818 37.7627 248.146 37.1498 244.523 37.1498H231.904V52.2759ZM231.904 77.347H247.365C250.987 77.347 253.744 76.7899 255.638 75.6754C257.587 74.5056 258.564 72.3327 258.564 69.1571C258.564 63.9756 254.413 61.3852 246.111 61.3852H231.904V77.347ZM274.363 28.0408H284.223V56.5379L310.966 28.0408H323.502L300.017 53.613L323.837 86.4561H312.136L292.747 60.8836L284.223 70.0764V86.4561H274.363V28.0408Z" fill="white"/>
</g>
<defs>
<linearGradient id="paint0_linear_45_11" x1="73.9713" y1="27.169" x2="73.9713" y2="92.9454" gradientUnits="userSpaceOnUse">
<stop stop-color="#7E25E9"/>
<stop offset="1" stop-color="#3C0480"/>
</linearGradient>
</defs>
</svg>
