<svg width="377" height="131" viewBox="0 0 377 131" fill="none" xmlns="http://www.w3.org/2000/svg">
<mask id="mask0_45_70" style="mask-type:luminance" maskUnits="userSpaceOnUse" x="0" y="0" width="377" height="131">
<path d="M377 0H0V130.784H377V0Z" fill="white"/>
<path d="M37.958 101.243L22 69.9357C34.8283 72.8567 40.9435 66.3387 42.3973 62.7145L54.2088 38.4063C61.2625 28.615 69.4585 34.3266 72.6747 38.4063L83.6546 62.7145C91.773 76.9933 100.679 68.6639 104.117 62.7145L115.097 39.9362C123.614 29.193 131.511 35.4597 134.394 39.9362L149 71.4848C136.816 68.5102 132.72 72.8089 131.611 75.4797L118.756 101.243C111.037 115.203 101.899 107.059 98.2942 101.243L86.1511 75.4797C80.7713 68.9511 72.5072 71.9257 70.6921 75.4797L57.1076 101.243C48.6817 115.07 40.8304 107.004 37.958 101.243Z" fill="white"/>
</mask>
<g mask="url(#mask0_45_70)">
<path d="M197.213 95.5707C196.277 93.4198 194.844 91.7364 192.911 90.5207C191.01 89.2739 188.765 88.6504 186.178 88.6504C183.746 88.6504 181.564 89.2114 179.632 90.3337C177.699 91.4559 176.172 93.0612 175.05 95.1499C173.927 97.2072 173.365 99.6076 173.365 102.351C173.365 105.094 173.927 107.51 175.05 109.598C176.172 111.687 177.699 113.292 179.632 114.414C181.564 115.537 183.746 116.098 186.178 116.098C188.453 116.098 190.495 115.615 192.303 114.648C194.143 113.651 195.607 112.248 196.699 110.44C197.82 108.601 198.46 106.466 198.615 104.034H184.869V101.369H202.076V103.753C201.919 106.621 201.141 109.224 199.737 111.562C198.335 113.869 196.45 115.692 194.08 117.033C191.743 118.373 189.108 119.044 186.178 119.044C183.154 119.044 180.411 118.342 177.949 116.939C175.485 115.505 173.538 113.526 172.103 111.001C170.701 108.445 170 105.561 170 102.351C170 99.1399 170.701 96.2721 172.103 93.7471C173.538 91.1909 175.485 89.2114 177.949 87.8088C180.411 86.3748 183.154 85.6578 186.178 85.6578C189.669 85.6578 192.725 86.5307 195.342 88.2763C197.962 90.022 199.862 92.4535 201.047 95.5707H197.213ZM209.942 116.051H221.678V118.716H206.668V86.0318H209.942V116.051ZM239.629 119.044C236.605 119.044 233.863 118.342 231.399 116.939C228.936 115.505 226.989 113.526 225.554 111.001C224.152 108.445 223.45 105.561 223.45 102.351C223.45 99.1399 224.152 96.2721 225.554 93.7471C226.989 91.1909 228.936 89.2114 231.399 87.8088C233.863 86.3748 236.605 85.6578 239.629 85.6578C242.684 85.6578 245.442 86.3748 247.906 87.8088C250.368 89.2114 252.301 91.1909 253.703 93.7471C255.106 96.2721 255.808 99.1399 255.808 102.351C255.808 105.561 255.106 108.445 253.703 111.001C252.301 113.526 250.368 115.505 247.906 116.939C245.442 118.342 242.684 119.044 239.629 119.044ZM239.629 116.191C242.06 116.191 244.242 115.63 246.175 114.508C248.108 113.386 249.636 111.78 250.758 109.692C251.88 107.572 252.441 105.125 252.441 102.351C252.441 99.5764 251.88 97.1449 250.758 95.0564C249.636 92.9677 248.108 91.3624 246.175 90.2402C244.242 89.1179 242.06 88.5569 239.629 88.5569C237.198 88.5569 235.015 89.1179 233.083 90.2402C231.15 91.3624 229.623 92.9677 228.501 95.0564C227.379 97.1449 226.817 99.5764 226.817 102.351C226.817 105.125 227.379 107.572 228.501 109.692C229.623 111.78 231.15 113.386 233.083 114.508C235.015 115.63 237.198 116.191 239.629 116.191ZM275.684 101.836C277.522 102.179 279.082 103.114 280.359 104.642C281.638 106.169 282.277 107.946 282.277 109.972C282.277 111.624 281.856 113.121 281.014 114.461C280.204 115.77 279.004 116.815 277.414 117.594C275.824 118.342 273.923 118.716 271.71 118.716H260.394V86.0318H271.382C274.687 86.0318 277.195 86.7957 278.91 88.323C280.656 89.8506 281.529 91.83 281.529 94.2615C281.529 96.2876 280.984 97.9398 279.892 99.2179C278.802 100.465 277.399 101.338 275.684 101.836ZM263.666 100.48H271.288C273.502 100.48 275.2 99.9661 276.385 98.9373C277.602 97.8774 278.209 96.428 278.209 94.5887C278.209 92.7807 277.602 91.3624 276.385 90.3337C275.2 89.3049 273.455 88.7907 271.148 88.7907H263.666V100.48ZM271.475 115.957C273.845 115.957 275.684 115.396 276.993 114.274C278.334 113.152 279.004 111.609 279.004 109.645C279.004 107.681 278.302 106.123 276.9 104.969C275.528 103.785 273.673 103.192 271.335 103.192H263.666V115.957H271.475ZM305.828 110.954H290.959L288.107 118.716H284.646L296.57 86.4527H300.264L312.14 118.716H308.68L305.828 110.954ZM304.846 108.242L298.394 90.5675L291.94 108.242H304.846ZM319.264 116.051H331V118.716H315.991V86.0318H319.264V116.051Z" fill="white"/>
<path d="M37.958 101.243L22 69.9357C34.8283 72.8567 40.9435 66.3387 42.3973 62.7145L54.2088 38.4063C61.2625 28.615 69.4585 34.3266 72.6747 38.4063L83.6546 62.7145C91.773 76.9933 100.679 68.6639 104.117 62.7145L115.097 39.9362C123.614 29.193 131.511 35.4597 134.394 39.9362L149 71.4848C136.816 68.5102 132.72 72.8089 131.611 75.4797L118.756 101.243C111.037 115.203 101.899 107.059 98.2942 101.243L86.1511 75.4797C80.7713 68.9511 72.5072 71.9257 70.6921 75.4797L57.1076 101.243C48.6817 115.07 40.8304 107.004 37.958 101.243Z" fill="url(#paint0_linear_45_70)"/>
<path d="M180.504 78.0817H171.799V26.5157H185.373L200.938 58.9012L216.504 26.5157H230.004V78.0817H221.299V37.8025L203.299 73.5815H198.43L180.504 37.8025V78.0817ZM261.017 78.0817H238.443V26.5157H258.509C262.002 26.5157 265.001 26.9338 267.509 27.7699C270.067 28.6059 271.961 29.737 273.191 31.1632C275.55 33.8189 276.73 36.819 276.73 40.1633C276.73 44.1961 275.452 47.1961 272.895 49.1633C271.961 49.8519 271.322 50.2947 270.976 50.4912C270.632 50.6387 270.017 50.9092 269.133 51.3028C272.328 51.9913 274.863 53.4422 276.73 55.6552C278.649 57.8191 279.608 60.5241 279.608 63.7701C279.608 67.3602 278.378 70.5325 275.92 73.2865C273.018 76.4833 268.049 78.0817 261.017 78.0817ZM247.148 47.9092H258.214C264.51 47.9092 267.658 45.77 267.658 41.4911C267.658 39.0321 266.894 37.2617 265.371 36.1796C263.845 35.0978 261.486 34.5567 258.288 34.5567H247.148V47.9092ZM247.148 70.0407H260.796C263.994 70.0407 266.428 69.5489 268.1 68.5651C269.82 67.5325 270.682 65.6143 270.682 62.811C270.682 58.2371 267.019 55.9504 259.69 55.9504H247.148V70.0407ZM284.629 26.5157H293.333V51.6715L316.94 26.5157H328.006L307.275 49.0896L328.302 78.0817H317.973L300.858 55.5076L293.333 63.6226V78.0817H284.629V26.5157Z" fill="white"/>
</g>
<defs>
<linearGradient id="paint0_linear_45_70" x1="85.5" y1="32.9999" x2="85.5" y2="108.951" gradientUnits="userSpaceOnUse">
<stop stop-color="#FDFDFD"/>
<stop offset="1" stop-color="#BABDCC"/>
</linearGradient>
</defs>
</svg>
